<svg xmlns="http://www.w3.org/2000/svg" width="444" height="156" viewBox="0 0 444 156" role="img" aria-label="subenum: every DNS query, accounted for">
  <rect width="444" height="156" rx="14" fill="#0E1726"/>
  <g transform="translate(26 42) scale(2.25)">
    <path d="M10 16H14M14 8V24M14 8H19M14 16H19M14 24H19" fill="none" stroke="#E8ECF2" stroke-width="2" stroke-linecap="round" stroke-linejoin="round"/>
    <circle cx="7.5" cy="16" r="3.5" fill="#F2B441"/>
    <rect x="19.5" y="5" width="6" height="6" rx="1.2" fill="#4CC9A0"/>
    <rect x="19.5" y="13" width="6" height="6" rx="1.2" fill="#4CC9A0"/>
    <rect x="20.25" y="21.75" width="4.5" height="4.5" rx="0.9" fill="none" stroke="#6F7E97" stroke-width="1.5"/>
  </g>
  <path fill="#E8ECF2" d="M143.8 94.8Q134.8 94.8 129.4 88.3L135.2 82.5Q138.6 87.3 144 87.3Q148.7 87.3 148.7 83.5Q148.7 82 148 81.2Q147.2 80.4 145.6 80.1L141.9 79.4Q135.9 78.2 133.3 75.6Q130.7 73 130.7 68.2Q130.7 62.4 134.1 59.4Q137.5 56.4 144.1 56.4Q148.5 56.4 151.8 57.8Q155 59.1 157.5 61.9L151.9 67.7Q148.7 64 144.2 64Q139.9 64 139.9 67.8Q139.9 69.3 140.7 70.1Q141.4 70.8 143.2 71.2L147 71.9Q152.8 72.9 155.4 75.4Q158 77.9 158 82.5Q158 88.5 154.2 91.7Q150.5 94.8 143.8 94.8ZM183.6 87.8H182.5Q182 89.2 181.3 90.5Q180.6 91.8 179.5 92.7Q178.5 93.7 177.1 94.3Q175.7 94.8 173.8 94.8Q168.9 94.8 166.3 91.5Q163.7 88.2 163.7 82.2V57.2H173.5V80.3Q173.5 86.9 178.1 86.9Q180.3 86.9 181.9 85.5Q183.6 84.1 183.6 81.7V57.2H193.4V94H183.6ZM201.9 42.2H211.7V63.3H212.8Q213.1 61.9 213.9 60.6Q214.7 59.3 215.9 58.4Q217 57.5 218.4 56.9Q219.8 56.4 221.2 56.4Q227.6 56.4 230.6 61.2Q233.6 66.1 233.6 75.7Q233.6 85.2 230.6 90Q227.7 94.8 221.2 94.8Q219.8 94.8 218.4 94.3Q217 93.8 215.9 92.8Q214.7 91.9 213.9 90.6Q213.1 89.4 212.8 87.9H211.7V94H201.9ZM217.3 86.9Q220.1 86.9 221.7 85.1Q223.3 83.4 223.3 80.3V71Q223.3 67.8 221.7 66.1Q220.1 64.4 217.3 64.4Q214.7 64.4 213.2 65.6Q211.7 66.8 211.7 69.3V82Q211.7 84.4 213.2 85.6Q214.7 86.9 217.3 86.9ZM254.9 94.8Q247.3 94.8 242.8 90Q238.3 85.2 238.3 75.7Q238.3 65.9 242.3 61.1Q246.2 56.4 253.9 56.4Q261.6 56.4 265.6 61.1Q269.5 65.9 269.5 75.7V78H248.5V80.3Q248.5 83.4 250.4 85.3Q252.3 87.1 255.6 87.1Q258.3 87.1 260.3 85.9Q262.2 84.7 263.8 82.5L268.8 88.3Q266.5 91.3 263.1 93.1Q259.6 94.8 254.9 94.8ZM253.9 63.8Q248.5 63.8 248.5 70.1V72.3H259.3V70.1Q259.3 63.8 253.9 63.8ZM276 94V57.2H285.8V63.5H286.9Q287.3 62 288 60.8Q288.7 59.5 289.8 58.5Q290.8 57.5 292.2 57Q293.6 56.4 295.4 56.4Q300.4 56.4 303 59.7Q305.7 63.1 305.7 69V94H295.9V70.9Q295.9 64.4 291.3 64.4Q289.1 64.4 287.4 65.8Q285.8 67.1 285.8 69.6V94ZM333.2 87.8H332.1Q331.7 89.2 331 90.5Q330.2 91.8 329.2 92.7Q328.1 93.7 326.7 94.3Q325.3 94.8 323.4 94.8Q318.5 94.8 315.9 91.5Q313.4 88.2 313.4 82.2V57.2H323.2V80.3Q323.2 86.9 327.7 86.9Q329.9 86.9 331.6 85.5Q333.2 84.1 333.2 81.7V57.2H343V94H333.2ZM351.6 94V57.2H361.4V63.5H362.5Q362.9 62 363.7 60.8Q364.4 59.5 365.4 58.5Q366.4 57.5 367.8 57Q369.2 56.4 371 56.4Q374.6 56.4 376.7 58.3Q378.8 60.3 379.8 63.8H380.7Q381.9 60 384.4 58.2Q387 56.4 390.4 56.4Q395.1 56.4 397.5 59.8Q400 63.1 400 69V94H390.2V70.9Q390.2 64.4 386 64.4Q383.8 64.4 382.2 65.8Q380.7 67.1 380.7 69.6V94H370.9V70.9Q370.9 64.4 366.6 64.4Q364.5 64.4 362.9 65.8Q361.4 67.1 361.4 69.6V94Z"/>
  <path fill="#94A3BA" d="M135.6 124.2Q134.8 124.2 134.1 123.9Q133.5 123.6 133 123.1Q132.5 122.5 132.3 121.8Q132 121.1 132 120.1Q132 119.2 132.3 118.5Q132.5 117.7 133 117.2Q133.5 116.7 134.1 116.4Q134.8 116.1 135.6 116.1Q136.3 116.1 137 116.4Q137.6 116.7 138.1 117.2Q138.5 117.7 138.8 118.3Q139 119 139 119.9V120.4H133.3V120.8Q133.3 121.3 133.4 121.7Q133.6 122.2 133.9 122.5Q134.2 122.8 134.7 123Q135.1 123.1 135.6 123.1Q136.4 123.1 137 122.8Q137.6 122.4 137.9 121.8L138.7 122.4Q138.4 123.2 137.6 123.7Q136.8 124.2 135.6 124.2ZM135.6 117.1Q135.1 117.1 134.6 117.2Q134.2 117.4 133.9 117.7Q133.6 118.1 133.4 118.5Q133.3 118.9 133.3 119.4V119.5H137.7V119.4Q137.7 118.9 137.5 118.4Q137.4 118 137.1 117.7Q136.8 117.4 136.4 117.2Q136 117.1 135.6 117.1ZM143.7 124 141 116.3H142.2L143.3 119.5L144.5 123H144.5L145.7 119.5L146.9 116.3H148L145.3 124ZM153.6 124.2Q152.8 124.2 152.1 123.9Q151.5 123.6 151 123.1Q150.5 122.5 150.3 121.8Q150 121.1 150 120.1Q150 119.2 150.3 118.5Q150.5 117.7 151 117.2Q151.5 116.7 152.1 116.4Q152.8 116.1 153.6 116.1Q154.3 116.1 155 116.4Q155.6 116.7 156.1 117.2Q156.5 117.7 156.8 118.3Q157 119 157 119.9V120.4H151.3V120.8Q151.3 121.3 151.4 121.7Q151.6 122.2 151.9 122.5Q152.2 122.8 152.7 123Q153.1 123.1 153.6 123.1Q154.4 123.1 155 122.8Q155.6 122.4 155.9 121.8L156.7 122.4Q156.4 123.2 155.6 123.7Q154.8 124.2 153.6 124.2ZM153.6 117.1Q153.1 117.1 152.6 117.2Q152.2 117.4 151.9 117.7Q151.6 118.1 151.4 118.5Q151.3 118.9 151.3 119.4V119.5H155.7V119.4Q155.7 118.9 155.5 118.4Q155.4 118 155.1 117.7Q154.8 117.4 154.4 117.2Q154 117.1 153.6 117.1ZM159.2 123H161.4V117.3H159.2V116.3H162.6V118.2H162.7Q162.9 117.3 163.6 116.8Q164.3 116.3 165.3 116.3H166.4V117.5H164.9Q163.9 117.5 163.3 118.1Q162.6 118.7 162.6 119.6V123H165.6V124H159.2ZM174 116.3H175.2L171.4 125.7Q171.2 126 171.1 126.3Q170.9 126.5 170.7 126.7Q170.4 126.8 170.1 126.9Q169.8 127 169.4 127H168.2V126H170L170.9 123.8L167.8 116.3H169L170.3 119.5L171.5 122.4H171.5L172.7 119.5ZM186.4 113.5H189.3Q191.3 113.5 192.2 114.8Q193.2 116.2 193.2 118.8Q193.2 121.4 192.2 122.7Q191.3 124 189.3 124H186.4ZM189.3 122.9Q190.6 122.9 191.2 122Q191.8 121.2 191.8 119.6V118Q191.8 116.4 191.2 115.5Q190.6 114.6 189.3 114.6H187.7V122.9ZM196.4 115.2H196.3V124H195.2V113.5H197L200.6 122.3H200.7V113.5H201.8V124H200ZM207.5 124.2Q206.1 124.2 205.2 123.7Q204.3 123.1 203.7 122.3L204.6 121.6Q205.2 122.3 205.9 122.7Q206.6 123.1 207.5 123.1Q208.7 123.1 209.3 122.6Q209.9 122 209.9 121.1Q209.9 120.3 209.4 119.9Q209 119.5 207.9 119.3L206.7 119.1Q206 119 205.5 118.7Q204.9 118.4 204.6 118.1Q204.3 117.7 204.2 117.2Q204 116.8 204 116.3Q204 114.8 205 114.1Q205.9 113.3 207.5 113.3Q208.8 113.3 209.7 113.8Q210.5 114.2 211 115L210.2 115.7Q209.7 115.2 209.1 114.8Q208.5 114.4 207.5 114.4Q206.4 114.4 205.9 114.9Q205.3 115.3 205.3 116.2Q205.3 116.9 205.7 117.4Q206.2 117.8 207.3 118L208.4 118.2Q209.2 118.3 209.7 118.6Q210.2 118.9 210.5 119.3Q210.9 119.6 211 120.1Q211.1 120.6 211.1 121.1Q211.1 122.5 210.2 123.4Q209.2 124.2 207.5 124.2ZM227.4 122.7H227.3Q226.6 124.2 224.9 124.2Q223.5 124.2 222.7 123.1Q221.9 122 221.9 120.1Q221.9 118.2 222.7 117.1Q223.5 116.1 224.9 116.1Q226.6 116.1 227.3 117.5H227.4V116.3H228.6V127H227.4ZM225.4 123.1Q225.8 123.1 226.2 123Q226.5 122.9 226.8 122.7Q227.1 122.5 227.2 122.2Q227.4 121.9 227.4 121.5V118.7Q227.4 118.3 227.2 118.1Q227.1 117.8 226.8 117.6Q226.5 117.4 226.2 117.2Q225.8 117.1 225.4 117.1Q224.3 117.1 223.8 117.8Q223.2 118.4 223.2 119.5V120.8Q223.2 121.8 223.8 122.5Q224.3 123.1 225.4 123.1ZM236.3 122.7H236.3Q236.2 123 236 123.3Q235.8 123.5 235.5 123.7Q235.3 123.9 234.9 124.1Q234.5 124.2 234.1 124.2Q232.8 124.2 232.1 123.4Q231.4 122.6 231.4 121.2V116.3H232.6V121Q232.6 122.1 233 122.6Q233.5 123.1 234.4 123.1Q234.8 123.1 235.1 123Q235.5 122.9 235.7 122.8Q236 122.6 236.2 122.3Q236.3 122 236.3 121.6V116.3H237.5V124H236.3ZM243.6 124.2Q242.8 124.2 242.1 123.9Q241.5 123.6 241 123.1Q240.5 122.5 240.3 121.8Q240 121.1 240 120.1Q240 119.2 240.3 118.5Q240.5 117.7 241 117.2Q241.5 116.7 242.1 116.4Q242.8 116.1 243.6 116.1Q244.3 116.1 245 116.4Q245.6 116.7 246.1 117.2Q246.5 117.7 246.8 118.3Q247 119 247 119.9V120.4H241.3V120.8Q241.3 121.3 241.4 121.7Q241.6 122.2 241.9 122.5Q242.2 122.8 242.7 123Q243.1 123.1 243.6 123.1Q244.4 123.1 245 122.8Q245.6 122.4 245.9 121.8L246.7 122.4Q246.4 123.2 245.6 123.7Q244.8 124.2 243.6 124.2ZM243.6 117.1Q243.1 117.1 242.6 117.2Q242.2 117.4 241.9 117.7Q241.6 118.1 241.4 118.5Q241.3 118.9 241.3 119.4V119.5H245.7V119.4Q245.7 118.9 245.5 118.4Q245.4 118 245.1 117.7Q244.8 117.4 244.4 117.2Q244 117.1 243.6 117.1ZM249.2 123H251.4V117.3H249.2V116.3H252.6V118.2H252.7Q252.9 117.3 253.6 116.8Q254.3 116.3 255.3 116.3H256.4V117.5H254.9Q253.9 117.5 253.3 118.1Q252.6 118.7 252.6 119.6V123H255.6V124H249.2ZM264 116.3H265.2L261.4 125.7Q261.2 126 261.1 126.3Q260.9 126.5 260.7 126.7Q260.4 126.8 260.1 126.9Q259.8 127 259.4 127H258.2V126H260L260.9 123.8L257.8 116.3H259L260.3 119.5L261.5 122.4H261.5L262.7 119.5ZM269.9 122H271.8L270.1 126.1H269.1ZM291.4 124Q290.7 124 290.4 123.6Q290.1 123.3 290 122.7H290Q289.7 123.4 289.2 123.8Q288.6 124.2 287.6 124.2Q286.4 124.2 285.7 123.6Q285 122.9 285 121.8Q285 120.7 285.8 120.2Q286.6 119.6 288.3 119.6H290V118.8Q290 118 289.5 117.5Q289 117.1 288.1 117.1Q287.3 117.1 286.9 117.4Q286.4 117.7 286.1 118.2L285.2 117.6Q285.4 117.3 285.6 117.1Q285.9 116.8 286.3 116.6Q286.7 116.3 287.1 116.2Q287.6 116.1 288.2 116.1Q289.6 116.1 290.4 116.8Q291.2 117.5 291.2 118.7V123H292.2V124ZM287.9 123.2Q288.3 123.2 288.7 123.1Q289.1 123 289.4 122.8Q289.7 122.6 289.8 122.3Q290 122 290 121.8V120.5H288.3Q287.2 120.5 286.7 120.8Q286.2 121.1 286.2 121.6V122Q286.2 122.6 286.7 122.9Q287.1 123.2 287.9 123.2ZM297.8 124.2Q296.9 124.2 296.3 123.9Q295.6 123.6 295.2 123.1Q294.7 122.5 294.5 121.8Q294.3 121 294.3 120.1Q294.3 119.2 294.5 118.5Q294.7 117.7 295.2 117.2Q295.6 116.7 296.3 116.4Q296.9 116.1 297.8 116.1Q298.9 116.1 299.6 116.6Q300.3 117.1 300.6 117.9L299.7 118.4Q299.4 117.8 299 117.4Q298.5 117.1 297.8 117.1Q297.2 117.1 296.8 117.3Q296.4 117.5 296.1 117.8Q295.8 118.1 295.7 118.5Q295.6 119 295.6 119.5V120.8Q295.6 121.3 295.7 121.7Q295.8 122.2 296.1 122.5Q296.4 122.8 296.8 123Q297.2 123.1 297.8 123.1Q298.6 123.1 299.1 122.8Q299.6 122.4 299.9 121.8L300.7 122.4Q300.4 123.2 299.7 123.7Q298.9 124.2 297.8 124.2ZM306.8 124.2Q305.9 124.2 305.3 123.9Q304.6 123.6 304.2 123.1Q303.7 122.5 303.5 121.8Q303.3 121 303.3 120.1Q303.3 119.2 303.5 118.5Q303.7 117.7 304.2 117.2Q304.6 116.7 305.3 116.4Q305.9 116.1 306.8 116.1Q307.9 116.1 308.6 116.6Q309.3 117.1 309.6 117.9L308.7 118.4Q308.4 117.8 308 117.4Q307.5 117.1 306.8 117.1Q306.2 117.1 305.8 117.3Q305.4 117.5 305.1 117.8Q304.8 118.1 304.7 118.5Q304.6 119 304.6 119.5V120.8Q304.6 121.3 304.7 121.7Q304.8 122.2 305.1 122.5Q305.4 122.8 305.8 123Q306.2 123.1 306.8 123.1Q307.6 123.1 308.1 122.8Q308.6 122.4 308.9 121.8L309.7 122.4Q309.4 123.2 308.7 123.7Q307.9 124.2 306.8 124.2ZM315.5 124.2Q314.7 124.2 314 123.9Q313.4 123.6 312.9 123.1Q312.5 122.5 312.2 121.8Q312 121.1 312 120.1Q312 119.2 312.2 118.5Q312.5 117.7 312.9 117.2Q313.4 116.7 314 116.4Q314.7 116.1 315.5 116.1Q316.3 116.1 317 116.4Q317.6 116.7 318.1 117.2Q318.5 117.7 318.8 118.5Q319 119.2 319 120.1Q319 121.1 318.8 121.8Q318.5 122.5 318.1 123.1Q317.6 123.6 317 123.9Q316.3 124.2 315.5 124.2ZM315.5 123.1Q316.5 123.1 317.1 122.5Q317.7 121.9 317.7 120.7V119.6Q317.7 118.3 317.1 117.7Q316.5 117.1 315.5 117.1Q314.5 117.1 313.9 117.7Q313.3 118.3 313.3 119.6V120.7Q313.3 121.9 313.9 122.5Q314.5 123.1 315.5 123.1ZM326.3 122.7H326.3Q326.1 123 326 123.3Q325.8 123.5 325.5 123.7Q325.3 123.9 324.9 124.1Q324.5 124.2 324.1 124.2Q322.9 124.2 322.1 123.4Q321.4 122.6 321.4 121.2V116.3H322.6V121Q322.6 122.1 323 122.6Q323.5 123.1 324.4 123.1Q324.8 123.1 325.1 123Q325.5 122.9 325.7 122.8Q326 122.6 326.2 122.3Q326.3 122 326.3 121.6V116.3H327.5V124H326.3ZM330.5 124V116.3H331.7V117.5H331.7Q331.9 117.2 332 117Q332.2 116.7 332.5 116.5Q332.7 116.3 333.1 116.2Q333.5 116.1 333.9 116.1Q335.1 116.1 335.9 116.9Q336.6 117.6 336.6 119V124H335.4V119.2Q335.4 118.2 335 117.7Q334.5 117.1 333.6 117.1Q333.2 117.1 332.9 117.2Q332.5 117.3 332.3 117.5Q332 117.7 331.8 118Q331.7 118.3 331.7 118.6V124ZM342.9 124Q342 124 341.6 123.5Q341.2 123 341.2 122.2V117.3H338.6V116.3H340.5Q340.9 116.3 341.1 116.1Q341.2 115.9 341.2 115.6V113.5H342.4V116.3H345.9V117.3H342.4V123H345.9V124ZM351.6 124.2Q350.8 124.2 350.1 123.9Q349.5 123.6 349 123.1Q348.5 122.5 348.3 121.8Q348 121.1 348 120.1Q348 119.2 348.3 118.5Q348.5 117.7 349 117.2Q349.5 116.7 350.1 116.4Q350.8 116.1 351.6 116.1Q352.3 116.1 353 116.4Q353.6 116.7 354.1 117.2Q354.5 117.7 354.8 118.3Q355 119 355 119.9V120.4H349.3V120.8Q349.3 121.3 349.4 121.7Q349.6 122.2 349.9 122.5Q350.2 122.8 350.7 123Q351.1 123.1 351.6 123.1Q352.4 123.1 353 122.8Q353.6 122.4 353.9 121.8L354.7 122.4Q354.4 123.2 353.6 123.7Q352.8 124.2 351.6 124.2ZM351.6 117.1Q351.1 117.1 350.6 117.2Q350.2 117.4 349.9 117.7Q349.6 118.1 349.4 118.5Q349.3 118.9 349.3 119.4V119.5H353.7V119.4Q353.7 118.9 353.5 118.4Q353.4 118 353.1 117.7Q352.8 117.4 352.4 117.2Q352 117.1 351.6 117.1ZM362.4 122.7H362.3Q361.6 124.2 359.9 124.2Q358.5 124.2 357.7 123.1Q356.9 122 356.9 120.1Q356.9 118.2 357.7 117.1Q358.5 116.1 359.9 116.1Q361.6 116.1 362.3 117.5H362.4V112.9H363.6V124H362.4ZM360.4 123.1Q360.8 123.1 361.2 123Q361.5 122.9 361.8 122.7Q362.1 122.5 362.2 122.2Q362.4 121.9 362.4 121.5V118.7Q362.4 118.3 362.2 118.1Q362.1 117.8 361.8 117.6Q361.5 117.4 361.2 117.2Q360.8 117.1 360.4 117.1Q359.3 117.1 358.8 117.8Q358.2 118.4 358.2 119.5V120.8Q358.2 121.8 358.8 122.5Q359.3 123.1 360.4 123.1ZM375.2 123H377.9V117.3H375.1V116.3H377.9V114.7Q377.9 113.9 378.3 113.4Q378.7 112.9 379.6 112.9H382.2V113.9H379.1V116.3H382.2V117.3H379.1V123H381.8V124H375.2ZM387.5 124.2Q386.7 124.2 386 123.9Q385.4 123.6 384.9 123.1Q384.5 122.5 384.2 121.8Q384 121.1 384 120.1Q384 119.2 384.2 118.5Q384.5 117.7 384.9 117.2Q385.4 116.7 386 116.4Q386.7 116.1 387.5 116.1Q388.3 116.1 389 116.4Q389.6 116.7 390.1 117.2Q390.5 117.7 390.8 118.5Q391 119.2 391 120.1Q391 121.1 390.8 121.8Q390.5 122.5 390.1 123.1Q389.6 123.6 389 123.9Q388.3 124.2 387.5 124.2ZM387.5 123.1Q388.5 123.1 389.1 122.5Q389.7 121.9 389.7 120.7V119.6Q389.7 118.3 389.1 117.7Q388.5 117.1 387.5 117.1Q386.5 117.1 385.9 117.7Q385.3 118.3 385.3 119.6V120.7Q385.3 121.9 385.9 122.5Q386.5 123.1 387.5 123.1ZM393.2 123H395.4V117.3H393.2V116.3H396.6V118.2H396.7Q396.9 117.3 397.6 116.8Q398.3 116.3 399.3 116.3H400.4V117.5H398.9Q397.9 117.5 397.3 118.1Q396.6 118.7 396.6 119.6V123H399.6V124H393.2Z"/>
</svg>
